<svg width="40" height="39" viewBox="0 0 40 39" fill="none" xmlns="http://www.w3.org/2000/svg">
<path d="M8.5 19.3117V30.5H19.6883L17.355 28.1667H10.8333V21.645L8.5 19.3117Z" fill="#FF4B61"/>
<path d="M38.6817 36.6717L35.3333 33.2767V36.3333H2.66667V31.4917H5V29.625H2.66667V21.8667H5V20H2.66667V12.5333H5V10.6667H2.66667V4.145L21.2633 22.6367V19.3467L2.32833 0.505C2.16515 0.340466 1.95667 0.228255 1.72946 0.182674C1.50225 0.137093 1.26662 0.160206 1.0526 0.249067C0.838586 0.337928 0.65588 0.488512 0.527778 0.681618C0.399677 0.874724 0.331985 1.1016 0.333333 1.33333V37.5C0.333333 37.8094 0.456249 38.1062 0.675041 38.325C0.893834 38.5438 1.19058 38.6667 1.5 38.6667H37.8533C38.0851 38.668 38.3119 38.6003 38.505 38.4722C38.6981 38.3441 38.8487 38.1614 38.9376 37.9474C39.0265 37.7334 39.0496 37.4977 39.004 37.2705C38.9584 37.0433 38.8462 36.8348 38.6817 36.6717Z" fill="#FF4B61"/>
<path d="M26 34H30.6667C31.2855 34 31.879 33.7542 32.3166 33.3166C32.7542 32.879 33 32.2855 33 31.6667V9.15L30.3167 4.215C30.1091 3.85546 29.8094 3.55779 29.4485 3.35271C29.0876 3.14763 28.6784 3.04256 28.2633 3.04833C27.8388 3.0517 27.4233 3.17081 27.0615 3.39284C26.6997 3.61487 26.4053 3.9314 26.21 4.30833L23.6667 9.17333V31.6667C23.6667 32.2855 23.9125 32.879 24.3501 33.3166C24.7877 33.7542 25.3812 34 26 34ZM26 9.73333L28.2633 5.335L30.6667 9.745V27H26V9.73333ZM26 28.9017H30.6667V31.7483H26V28.9017Z" fill="#FF4B61"/>
</svg>
