<svg width="37" height="37" viewBox="0 0 37 37" fill="none" xmlns="http://www.w3.org/2000/svg">
<path d="M27.6975 27.6975H32.2258C33.0279 27.6975 33.7971 27.3789 34.3642 26.8117C34.9314 26.2446 35.25 25.4754 35.25 24.6733V14.0967C35.2458 13.2959 34.9259 12.5291 34.3596 11.9628C33.7934 11.3966 33.0266 11.0767 32.2258 11.0725H5.02417C4.22339 11.0767 3.4566 11.3966 2.89035 11.9628C2.32411 12.5291 2.00416 13.2959 2 14.0967V24.6733C2 25.4754 2.31862 26.2446 2.88576 26.8117C3.4529 27.3789 4.22211 27.6975 5.02417 27.6975H9.5525M6.52832 23.1533H30.7217M27.6975 17.1208H30.7217M14.0967 29.2017H23.1533M9.55249 23.1533H27.6817V35.25H9.55249V23.1533ZM9.55249 2H27.6817V11.0725H9.55249V2Z" stroke="#FF4B61" stroke-width="2.5" stroke-miterlimit="10" stroke-linecap="round" stroke-linejoin="round"/>
</svg>
