<svg width="36" height="36" viewBox="0 0 36 36" fill="none" xmlns="http://www.w3.org/2000/svg">
<path d="M35.6553 13.6659L22.3352 0.345783C22.1144 0.125002 21.8149 0.000900269 21.5028 0.000900269C21.1905 0.000900269 20.891 0.125002 20.6703 0.345783L17.3403 3.67571C16.8806 4.13549 16.8806 4.88094 17.3403 5.34071L17.4277 5.42804L4.76585 21.2553C4.67909 21.3636 4.6099 21.4936 4.5682 21.6185L2.99109 26.3499L0.690328 28.6508C-0.229922 29.5708 -0.230273 31.0605 0.690258 31.9809L4.02026 35.3109C4.93812 36.2288 6.43212 36.229 7.35033 35.3109L9.65123 33.01L14.3826 31.4328C14.5014 31.3933 14.6343 31.3246 14.7458 31.2352C15.4496 30.6721 29.7808 19.2072 30.5729 18.5735L30.6603 18.6608C30.8902 18.8907 31.1915 19.0057 31.4927 19.0057C31.7939 19.0057 32.0953 18.8907 32.3251 18.6608L35.6552 15.3309C35.876 15.1101 36.0001 14.8106 36.0001 14.4984C36 14.186 35.876 13.8866 35.6553 13.6659ZM5.68624 33.6468C5.68624 33.6468 5.68582 33.6466 5.68505 33.6458L2.35519 30.3159L4.02019 28.6509L7.35054 31.9812L5.68624 33.6468ZM9.33321 30.6338L5.36723 26.6678L6.19966 24.1703L11.8306 29.8013L9.33321 30.6338ZM17.7976 25.7782L16.5077 24.4884C16.0486 24.0293 16.0486 23.2824 16.5077 22.8234L21.5027 17.8284C21.9617 17.3694 22.7086 17.3693 23.1678 17.8284L25.1976 19.8582L17.7976 25.7782ZM27.0476 18.3782L24.8328 16.1634C23.4556 14.7861 21.2148 14.7863 19.8378 16.1634L14.8428 21.1584C13.4624 22.5386 13.4622 24.7728 14.8428 26.1534L15.9476 27.2582L14.0977 28.7382C13.696 28.3365 7.63833 22.2789 7.26286 21.9035L19.103 7.10345C19.5196 7.52005 28.4832 16.4836 28.8977 16.8983L27.0476 18.3782ZM31.4927 16.1633L19.8377 4.50828L21.5027 2.84328L33.1578 14.4982L31.4927 16.1633Z" fill="#FF4B61"/>
</svg>
