<svg width="194" height="194" viewBox="0 0 194 194" fill="none" xmlns="http://www.w3.org/2000/svg">
<path d="M96.9001 0.333008C43.5401 0.333008 0.330078 43.6397 0.330078 96.9997C0.330078 150.36 43.5401 193.666 96.9001 193.666C150.357 193.666 193.663 150.36 193.663 96.9997C193.663 43.6397 150.357 0.333008 96.9001 0.333008ZM96.9967 174.333C54.2701 174.333 19.6634 139.726 19.6634 96.9997C19.6634 54.273 54.2701 19.6663 96.9967 19.6663C139.723 19.6663 174.33 54.273 174.33 96.9997C174.33 139.726 139.723 174.333 96.9967 174.333Z" fill="black"/>
<path d="M101.83 48.6664H87.3301V106.666L138.08 137.116L145.33 125.226L101.83 99.4164V48.6664Z" fill="black"/>
</svg>
