<svg width="426" height="425" viewBox="0 0 426 425" fill="none" xmlns="http://www.w3.org/2000/svg">
<path d="M359.529 2.39628L368.269 3.66728C381.865 5.82298 397.095 9.42198 406.472 18.798C415.847 28.174 419.446 43.404 421.603 57L422.874 65.739C425.725 86.369 426.471 113.401 421.604 143.407C411.996 202.636 380.467 273.304 301.281 328.022C300.886 332.032 300.835 336.101 300.912 340.194L301.301 352.511C301.521 360.724 301.374 368.899 299.109 376.762C294.799 391.729 279.472 401.581 265.133 408.658L258.101 411.976L249.035 415.977L242.826 418.488C226.806 424.608 207.49 428.87 194.824 416.206C189.079 410.461 186.43 402.664 184.299 394.866L183.264 390.976C179.658 377.224 175.53 363.567 170.408 350.301C169.007 352.005 167.51 353.655 165.918 355.249C153.58 367.586 136.827 373.8 120.062 378.612L108.932 381.664L97.8201 384.625L87.0081 387.313L77.2161 389.57L65.4971 392.067L58.1721 393.503C51.6351 394.723 43.7391 393.134 37.8021 387.197C31.8651 381.261 30.2771 373.364 31.4951 366.827L34.0041 354.345L36.9201 341.24L39.7281 329.701L44.8291 310.52C49.8951 291.949 56.0431 272.79 69.7511 259.081L72.0091 256.923L54.7141 250.702L37.3341 244.731C27.1671 241.374 16.4541 237.835 9.06306 230.444C-4.44584 216.935 1.30406 195.859 8.02606 179.287L11.7881 170.52L14.8991 163.695C22.0821 148.429 32.2931 130.83 48.5091 126.16C56.3711 123.896 64.5451 123.748 72.7591 123.969L85.0761 124.358C89.1681 124.434 93.2371 124.384 97.2481 123.99C151.965 44.802 222.632 13.274 281.862 3.66608C311.868 -1.20112 338.9 -0.45652 359.529 2.39628ZM289.12 48.415C239.29 56.497 178.756 83.188 131.51 154.236C125.787 162.842 116.104 166.97 106.232 168.53C100.662 169.408 95.0421 169.648 89.4051 169.658L72.4711 169.408C69.6511 169.388 66.8341 169.413 64.0241 169.534C57.1351 178.698 52.3241 189.583 48.7101 200.399L82.7121 212.739L96.7021 218.025C122.258 228.045 147.008 240.167 166.055 259.215C198.131 291.29 214.438 333.246 226.224 376.098C236.549 372.485 246.944 367.854 255.734 361.246L255.861 352.795L255.606 335.893C255.615 330.263 255.856 324.641 256.741 319.036C258.298 309.165 262.428 299.482 271.034 293.759C342.081 246.512 368.773 185.979 376.856 136.149C380.936 110.992 380.258 88.519 377.966 71.949C376.724 62.968 374.997 55.887 373.605 51.665C369.383 50.272 362.302 48.544 353.321 47.302C336.749 45.011 314.278 44.334 289.12 48.415ZM101.807 291.136C93.8771 300.705 90.1671 313.298 87.1951 325.771L84.7461 336.36C84.3411 338.095 83.9311 339.81 83.5051 341.495L99.2331 337.805C111.71 334.832 124.308 331.122 133.873 323.182C142.724 314.331 142.714 299.99 133.862 291.136C125.011 282.285 110.659 282.285 101.807 291.136ZM230.03 130.86C247.733 113.157 276.438 113.157 294.141 130.86C311.846 148.564 311.846 177.268 294.141 194.97C276.438 212.675 247.733 212.675 230.03 194.97C212.325 177.268 212.325 148.564 230.03 130.86Z" fill="#FF4B61"/>
</svg>
