<svg width="32" height="27" viewBox="0 0 32 27" fill="none" xmlns="http://www.w3.org/2000/svg">
<path fill-rule="evenodd" clip-rule="evenodd" d="M9.97918 21.7917C9.97918 21.2049 9.50348 20.7292 8.91668 20.7292H1.83334C1.24655 20.7292 0.770844 21.2049 0.770844 21.7917C0.770844 22.3785 1.24655 22.8542 1.83334 22.8542H8.91668C9.50348 22.8542 9.97918 22.3785 9.97918 21.7917Z" fill="#09244B"/>
<path fill-rule="evenodd" clip-rule="evenodd" d="M22.0208 6.20834C22.0208 5.62154 22.4966 5.14584 23.0833 5.14584H30.1667C30.7535 5.14584 31.2292 5.62154 31.2292 6.20834C31.2292 6.79513 30.7535 7.27084 30.1667 7.27084H23.0833C22.4966 7.27084 22.0208 6.79513 22.0208 6.20834Z" fill="#09244B"/>
<path fill-rule="evenodd" clip-rule="evenodd" d="M31.2292 21.7917C31.2292 21.2049 30.7535 20.7292 30.1667 20.7292H17.4167C16.8299 20.7292 16.3542 21.2049 16.3542 21.7917C16.3542 22.3785 16.8299 22.8542 17.4167 22.8542H30.1667C30.7535 22.8542 31.2292 22.3785 31.2292 21.7917Z" fill="#09244B"/>
<path fill-rule="evenodd" clip-rule="evenodd" d="M0.770844 6.20834C0.770844 5.62154 1.24655 5.14584 1.83334 5.14584H14.5833C15.1701 5.14584 15.6458 5.62154 15.6458 6.20834C15.6458 6.79513 15.1701 7.27084 14.5833 7.27084H1.83334C1.24655 7.27084 0.770844 6.79513 0.770844 6.20834Z" fill="#09244B"/>
<path fill-rule="evenodd" clip-rule="evenodd" d="M13.1667 18.4624C14.927 18.4624 16.3542 19.8895 16.3542 21.6499C16.3542 23.4102 14.927 24.8374 13.1667 24.8374C11.4063 24.8374 9.97918 23.4102 9.97918 21.6499C9.97918 19.8895 11.4063 18.4624 13.1667 18.4624ZM18.4792 21.6499C18.4792 18.7158 16.1007 16.3374 13.1667 16.3374C10.2327 16.3374 7.85418 18.7158 7.85418 21.6499C7.85418 24.5839 10.2327 26.9624 13.1667 26.9624C16.1007 26.9624 18.4792 24.5839 18.4792 21.6499Z" fill="#09244B"/>
<path fill-rule="evenodd" clip-rule="evenodd" d="M18.8333 2.87903C17.073 2.87903 15.6458 4.30612 15.6458 6.06653C15.6458 7.82693 17.073 9.25403 18.8333 9.25403C20.5937 9.25403 22.0208 7.82693 22.0208 6.06653C22.0208 4.30612 20.5937 2.87903 18.8333 2.87903ZM13.5208 6.06653C13.5208 3.13251 15.8993 0.754028 18.8333 0.754028C21.7674 0.754028 24.1458 3.13251 24.1458 6.06653C24.1458 9.00054 21.7674 11.379 18.8333 11.379C15.8993 11.379 13.5208 9.00054 13.5208 6.06653Z" fill="#09244B"/>
</svg>
