<svg width="626" height="611" viewBox="0 0 626 611" fill="none" xmlns="http://www.w3.org/2000/svg">
<rect width="626" height="611" fill="white"/>
<g clip-path="url(#clip0_371_2)">
<path d="M462.111 184H435V129.777H191V184H163.889C149.509 184 135.717 189.712 125.548 199.881C115.38 210.05 109.667 223.841 109.667 238.222V387.333H162.805V361.442H136.778V238.222C136.778 231.031 139.634 224.136 144.719 219.051C149.803 213.967 156.699 211.111 163.889 211.111H462.111C469.302 211.111 476.198 213.967 481.282 219.051C486.366 224.136 489.223 231.031 489.223 238.222V360.222H463.196V387.333H516.334V238.222C516.334 223.841 510.621 210.05 500.452 199.881C490.284 189.712 476.492 184 462.111 184V184ZM407.889 184H218.111V156.888H407.889V184Z" fill="#FF4B61"/>
<path d="M448.555 306H177.444C173.849 306 170.401 307.428 167.859 309.97C165.317 312.512 163.889 315.96 163.889 319.556C163.889 323.151 165.317 326.599 167.859 329.141C170.401 331.683 173.849 333.111 177.444 333.111H191V495.778H435V333.111H448.555C452.15 333.111 455.598 331.683 458.141 329.141C460.683 326.599 462.111 323.151 462.111 319.556C462.111 315.96 460.683 312.512 458.141 309.97C455.598 307.428 452.15 306 448.555 306ZM407.889 468.667H218.111V333.111H407.889V468.667Z" fill="#FF4B61"/>
<path d="M462.111 238.765H435V265.876H462.111V238.765Z" fill="#FF4B61"/>
</g>
<defs>
<clipPath id="clip0_371_2">
<rect width="488" height="488" fill="white" transform="translate(69 62)"/>
</clipPath>
</defs>
</svg>
