<svg width="91" height="91" viewBox="0 0 91 91" fill="none" xmlns="http://www.w3.org/2000/svg">
<g clip-path="url(#clip0_409_5)">
<path d="M45.5 0C33.1524 0 31.5998 0.056875 26.7483 0.273C21.8969 0.5005 18.5924 1.26262 15.6975 2.38875C12.6609 3.53091 9.91042 5.32251 7.63831 7.63831C5.32393 9.91158 3.53255 12.6617 2.38875 15.6975C1.26262 18.5868 0.494813 21.8969 0.273 26.7312C0.056875 31.5941 0 33.1411 0 45.5057C0 57.8589 0.056875 59.4059 0.273 64.2574C0.5005 69.1031 1.26262 72.4076 2.38875 75.3025C3.55469 78.2941 5.10738 80.8307 7.63831 83.3617C10.1636 85.8926 12.7002 87.451 15.6918 88.6112C18.5924 89.7374 21.8912 90.5052 26.7369 90.727C31.5941 90.9431 33.1411 91 45.5 91C57.8589 91 59.4003 90.9431 64.2574 90.727C69.0974 90.4995 72.4133 89.7374 75.3082 88.6112C78.3428 87.4685 81.0913 85.6769 83.3617 83.3617C85.8926 80.8307 87.4453 78.2941 88.6112 75.3025C89.7317 72.4076 90.4995 69.1031 90.727 64.2574C90.9431 59.4059 91 57.8589 91 45.5C91 33.1411 90.9431 31.5941 90.727 26.7369C90.4995 21.8969 89.7317 18.5868 88.6112 15.6975C87.4676 12.6617 85.6762 9.91147 83.3617 7.63831C81.0903 5.32166 78.3396 3.52992 75.3025 2.38875C72.4019 1.26262 69.0917 0.494813 64.2517 0.273C59.3946 0.056875 57.8533 0 45.4886 0H45.5057H45.5ZM41.4221 8.20138H45.5057C57.6542 8.20138 59.0931 8.24119 63.8877 8.463C68.3239 8.66206 70.7354 9.40713 72.3393 10.0271C74.4607 10.8518 75.9793 11.8414 77.5718 13.4339C79.1643 15.0264 80.1483 16.5393 80.9729 18.6664C81.5986 20.2646 82.3379 22.6761 82.537 27.1123C82.7588 31.9069 82.8043 33.3458 82.8043 45.4886C82.8043 57.6314 82.7588 59.0761 82.537 63.8706C82.3379 68.3069 81.5929 70.7127 80.9729 72.3166C80.2435 74.2922 79.0792 76.0785 77.5661 77.5434C75.9736 79.1359 74.4608 80.1198 72.3336 80.9445C70.7411 81.5701 68.3296 82.3095 63.8877 82.5143C59.0931 82.7304 57.6542 82.7816 45.5057 82.7816C33.3572 82.7816 31.9126 82.7304 27.118 82.5143C22.6818 82.3095 20.2759 81.5701 18.6721 80.9445C16.6957 80.2161 14.9077 79.0539 13.4396 77.5434C11.9253 76.0762 10.7592 74.2882 10.0271 72.3109C9.40713 70.7127 8.66206 68.3012 8.463 63.8649C8.24688 59.0704 8.20138 57.6314 8.20138 45.4772C8.20138 33.3287 8.24688 31.8955 8.463 27.1009C8.66775 22.6647 9.40713 20.2532 10.0328 18.6493C10.8574 16.5279 11.8471 15.0093 13.4396 13.4168C15.0321 11.8243 16.5449 10.8404 18.6721 10.0157C20.2759 9.39006 22.6818 8.65069 27.118 8.44594C31.3154 8.25256 32.942 8.19569 41.4221 8.19V8.20138V8.20138ZM69.7913 15.7544C69.0743 15.7544 68.3643 15.8956 67.7019 16.17C67.0394 16.4444 66.4375 16.8466 65.9305 17.3536C65.4235 17.8606 65.0213 18.4625 64.7469 19.1249C64.4725 19.7874 64.3313 20.4974 64.3313 21.2144C64.3313 21.9314 64.4725 22.6414 64.7469 23.3038C65.0213 23.9663 65.4235 24.5682 65.9305 25.0752C66.4375 25.5822 67.0394 25.9844 67.7019 26.2588C68.3643 26.5331 69.0743 26.6744 69.7913 26.6744C71.2394 26.6744 72.6282 26.0991 73.6521 25.0752C74.6761 24.0512 75.2513 22.6625 75.2513 21.2144C75.2513 19.7663 74.6761 18.3775 73.6521 17.3536C72.6282 16.3296 71.2394 15.7544 69.7913 15.7544V15.7544ZM45.5057 22.1357C42.4064 22.0874 39.3285 22.6561 36.4511 23.8087C33.5737 24.9613 30.9543 26.6748 28.7455 28.8494C26.5367 31.024 24.7825 33.6163 23.5852 36.4754C22.3878 39.3345 21.7712 42.4032 21.7712 45.5028C21.7712 48.6025 22.3878 51.6712 23.5852 54.5303C24.7825 57.3893 26.5367 59.9816 28.7455 62.1563C30.9543 64.3309 33.5737 66.0444 36.4511 67.197C39.3285 68.3496 42.4064 68.9183 45.5057 68.8699C51.6399 68.7742 57.4905 66.2703 61.7946 61.8985C66.0987 57.5267 68.5111 51.6378 68.5111 45.5028C68.5111 39.3679 66.0987 33.479 61.7946 29.1072C57.4905 24.7354 51.6399 22.2315 45.5057 22.1357V22.1357ZM45.5057 30.3314C49.5286 30.3314 53.3868 31.9295 56.2315 34.7742C59.0761 37.6189 60.6743 41.477 60.6743 45.5C60.6743 49.523 59.0761 53.3811 56.2315 56.2258C53.3868 59.0705 49.5286 60.6686 45.5057 60.6686C41.4827 60.6686 37.6246 59.0705 34.7799 56.2258C31.9352 53.3811 30.3371 49.523 30.3371 45.5C30.3371 41.477 31.9352 37.6189 34.7799 34.7742C37.6246 31.9295 41.4827 30.3314 45.5057 30.3314V30.3314Z" fill="black"/>
</g>
<defs>
<clipPath id="clip0_409_5">
<rect width="91" height="91" fill="white"/>
</clipPath>
</defs>
</svg>
