<svg width="74" height="74" viewBox="0 0 74 74" fill="none" xmlns="http://www.w3.org/2000/svg">
<path d="M9.14004 18.0879C14.024 18.0879 17.9832 14.1287 17.9832 9.24472C17.9832 4.36077 14.024 0.40155 9.14004 0.40155C4.25609 0.40155 0.296875 4.36077 0.296875 9.24472C0.296875 14.1287 4.25609 18.0879 9.14004 18.0879Z" fill="black"/>
<path d="M26.3333 24.789V73.8508H41.5663V49.5886C41.5663 43.1866 42.7707 36.9867 50.7086 36.9867C58.5373 36.9867 58.6343 44.3062 58.6343 49.9928V73.8548H73.8754V46.9494C73.8754 33.7332 71.0301 23.5765 55.5828 23.5765C48.1664 23.5765 43.1951 27.6464 41.1622 31.4981H40.956V24.789H26.3333ZM1.50938 24.789H16.7667V73.8508H1.50938V24.789Z" fill="black"/>
</svg>
