<svg width="15" height="15" viewBox="0 0 15 15" fill="none" xmlns="http://www.w3.org/2000/svg">
<path d="M1.66667 15C1.20833 15 0.815833 14.8369 0.489167 14.5108C0.163055 14.1842 0 13.7917 0 13.3333V1.66667C0 1.20833 0.163055 0.815833 0.489167 0.489167C0.815833 0.163055 1.20833 0 1.66667 0H13.3333C13.7917 0 14.1842 0.163055 14.5108 0.489167C14.8369 0.815833 15 1.20833 15 1.66667V13.3333C15 13.7917 14.8369 14.1842 14.5108 14.5108C14.1842 14.8369 13.7917 15 13.3333 15H1.66667ZM1.66667 13.3333H13.3333V1.66667H1.66667V13.3333ZM6.33333 10.6458C6.44444 10.6458 6.54861 10.6286 6.64583 10.5942C6.74306 10.5592 6.83333 10.5 6.91667 10.4167L11.6458 5.6875C11.7986 5.53472 11.875 5.34722 11.875 5.125C11.875 4.90278 11.7917 4.70833 11.625 4.54167C11.4722 4.38889 11.2778 4.3125 11.0417 4.3125C10.8056 4.3125 10.6111 4.38889 10.4583 4.54167L6.33333 8.66667L4.52083 6.85417C4.36806 6.70139 4.18056 6.625 3.95833 6.625C3.73611 6.625 3.54167 6.70833 3.375 6.875C3.22222 7.02778 3.14583 7.22222 3.14583 7.45833C3.14583 7.69444 3.22222 7.88889 3.375 8.04167L5.75 10.4167C5.83333 10.5 5.92361 10.5592 6.02083 10.5942C6.11806 10.6286 6.22222 10.6458 6.33333 10.6458V10.6458ZM1.66667 13.3333V1.66667V13.3333Z" fill="#FF4B61"/>
</svg>
