<svg width="161" height="201" viewBox="0 0 161 201" fill="none" xmlns="http://www.w3.org/2000/svg">
<path d="M80.5003 100.5C86.0232 100.5 90.7529 98.5315 94.6892 94.5952C98.6188 90.6655 100.584 85.9393 100.584 80.4163C100.584 74.8934 98.6188 70.1638 94.6892 66.2275C90.7529 62.2978 86.0232 60.333 80.5003 60.333C74.9774 60.333 70.2511 62.2978 66.3215 66.2275C62.3852 70.1638 60.417 74.8934 60.417 80.4163C60.417 85.9393 62.3852 90.6655 66.3215 94.5952C70.2511 98.5315 74.9774 100.5 80.5003 100.5ZM80.5003 200.916C53.5552 177.988 33.4317 156.689 20.1298 137.021C6.82127 117.36 0.166992 99.1608 0.166992 82.4247C0.166992 57.3205 8.24384 37.3209 24.3975 22.4257C40.5445 7.53058 59.2455 0.0830078 80.5003 0.0830078C101.755 0.0830078 120.456 7.53058 136.603 22.4257C152.757 37.3209 160.834 57.3205 160.834 82.4247C160.834 99.1608 154.183 117.36 140.881 137.021C127.572 156.689 107.445 177.988 80.5003 200.916Z" fill="black"/>
</svg>
