<svg width="25" height="20" viewBox="0 0 25 20" fill="none" xmlns="http://www.w3.org/2000/svg">
<path d="M23.375 16.5H1.375C0.615608 16.5 0 17.1156 0 17.875C0 18.6344 0.615608 19.25 1.375 19.25H23.375C24.1344 19.25 24.75 18.6344 24.75 17.875C24.75 17.1156 24.1344 16.5 23.375 16.5Z" fill="#3D4060"/>
<path d="M23.375 8.25H1.375C0.615608 8.25 0 8.86561 0 9.625C0 10.3844 0.615608 11 1.375 11H23.375C24.1344 11 24.75 10.3844 24.75 9.625C24.75 8.86561 24.1344 8.25 23.375 8.25Z" fill="#3D4060"/>
<path d="M23.375 0H1.375C0.615608 0 0 0.615608 0 1.375C0 2.13439 0.615608 2.75 1.375 2.75H23.375C24.1344 2.75 24.75 2.13439 24.75 1.375C24.75 0.615608 24.1344 0 23.375 0Z" fill="#3D4060"/>
</svg>
