<svg width="106" height="106" viewBox="0 0 106 106" fill="none" xmlns="http://www.w3.org/2000/svg">
<circle cx="53" cy="53" r="51" fill="#FFB6BF" stroke="black" stroke-width="4"/>
<path d="M42.4336 70.5671V66.5767C44.8138 64.6866 47.0891 62.7789 49.2593 60.8537C51.4295 58.9285 53.3547 57.0383 55.0348 55.1831C56.75 53.2929 58.0976 51.4553 59.0777 49.6701C60.0578 47.8499 60.5479 46.0997 60.5479 44.4196C60.5479 43.2995 60.3553 42.2494 59.9703 41.2693C59.5853 40.2542 58.9552 39.4491 58.0801 38.854C57.205 38.224 56.0324 37.9089 54.5623 37.9089C52.3571 37.9089 50.6944 38.609 49.5743 40.0091C48.4892 41.4093 47.9641 43.0894 47.9991 45.0496H42.5911C42.6261 42.4594 43.1687 40.2892 44.2188 38.539C45.3039 36.7888 46.739 35.4587 48.5242 34.5486C50.3444 33.6385 52.3921 33.1835 54.6673 33.1835C58.1326 33.1835 60.8979 34.1636 62.9631 36.1238C65.0633 38.0489 66.1134 40.7442 66.1134 44.2095C66.1134 46.2748 65.6059 48.3225 64.5908 50.3527C63.6107 52.3829 62.3155 54.343 60.7054 56.2332C59.1302 58.0884 57.4326 59.8386 55.6124 61.4837C53.7922 63.1289 52.0595 64.6166 50.4144 65.9467H67.216V70.5671H42.4336Z" fill="black"/>
</svg>
