<svg width="106" height="106" viewBox="0 0 106 106" fill="none" xmlns="http://www.w3.org/2000/svg">
<circle cx="53" cy="53" r="51" fill="#FFB6BF" stroke="black" stroke-width="4"/>
<path d="M53.918 71.1972C51.5378 71.1972 49.3675 70.7772 47.4074 69.9371C45.4822 69.062 43.942 67.7494 42.7869 65.9992C41.6318 64.249 41.0192 62.0613 40.9492 59.436H46.4623C46.5323 61.3962 47.1973 63.0589 48.4575 64.424C49.7526 65.7542 51.5728 66.4192 53.918 66.4192C56.1582 66.4192 57.8734 65.8067 59.0635 64.5815C60.2536 63.3214 60.8487 61.7638 60.8487 59.9086C60.8487 57.6684 60.0436 56.0057 58.4334 54.9206C56.8583 53.8355 54.9156 53.2929 52.6054 53.2929H49.8751V48.6725H52.6579C54.7231 48.6725 56.3857 48.1824 57.6459 47.2023C58.941 46.2222 59.5885 44.8396 59.5885 43.0544C59.5885 41.5493 59.081 40.3242 58.0659 39.3791C57.0858 38.434 55.6857 37.9614 53.8655 37.9614C51.9753 37.9614 50.4877 38.5215 49.4025 39.6416C48.3174 40.7267 47.7224 42.0918 47.6174 43.737H42.1043C42.1743 41.6018 42.6994 39.7466 43.6795 38.1715C44.6946 36.5963 46.0772 35.3712 47.8274 34.4961C49.5776 33.621 51.5903 33.1835 53.8655 33.1835C56.3157 33.1835 58.3634 33.621 60.0086 34.4961C61.6887 35.3362 62.9489 36.4913 63.789 37.9614C64.664 39.3966 65.1016 40.9717 65.1016 42.6869C65.1016 44.6471 64.559 46.3623 63.4739 47.8324C62.3888 49.3025 60.9362 50.2826 59.116 50.7727C61.2162 51.2277 62.9489 52.2603 64.314 53.8705C65.6791 55.4457 66.3617 57.4934 66.3617 60.0136C66.3617 62.0438 65.8892 63.9165 64.9441 65.6317C63.999 67.3118 62.5988 68.6594 60.7437 69.6745C58.8885 70.6896 56.6133 71.1972 53.918 71.1972Z" fill="black"/>
</svg>
