<svg width="208" height="208" viewBox="0 0 208 208" fill="none" xmlns="http://www.w3.org/2000/svg">
<path d="M42.13 90.085C58.69 122.63 85.37 149.195 117.915 165.87L143.215 140.57C146.32 137.465 150.92 136.43 154.945 137.81C167.825 142.065 181.74 144.365 196 144.365C202.325 144.365 207.5 149.54 207.5 155.865V196C207.5 202.325 202.325 207.5 196 207.5C88.015 207.5 0.5 119.985 0.5 12C0.5 5.675 5.675 0.5 12 0.5H52.25C58.575 0.5 63.75 5.675 63.75 12C63.75 26.375 66.05 40.175 70.305 53.055C71.57 57.08 70.65 61.565 67.43 64.785L42.13 90.085Z" fill="black"/>
</svg>
