<svg width="626" height="611" viewBox="0 0 626 611" fill="none" xmlns="http://www.w3.org/2000/svg">
<rect width="626" height="611" fill="white"/>
<path d="M221.652 417.263H404.746C405.446 417.263 406.034 417.85 406.034 418.551V510.712C406.034 511.412 405.446 512 404.746 512H221.652C220.952 512 220.364 511.412 220.364 510.712V418.551C220.364 417.85 220.952 417.263 221.652 417.263Z" stroke="#FF4B61" stroke-width="22"/>
<path d="M118.125 266.118H506.43C510.685 266.118 514.169 269.805 514.169 273.55V418.55C514.169 422.296 510.685 425.983 506.43 425.983H460.35C456.094 425.983 452.61 422.296 452.61 418.55V386.601C452.61 377.618 445.644 369.457 435.773 369.457H188.782C179.78 369.457 171.331 376.755 171.331 386.601V418.55C171.331 422.814 167.951 425.983 164.206 425.983H118.125C114.379 425.983 111 422.814 111 418.55V273.55C111 269.287 114.38 266.118 118.125 266.118ZM200.763 334.932C210.231 334.932 217.907 327.256 217.907 317.788V293.211C217.907 283.743 210.231 276.067 200.763 276.067H145.466C135.996 276.067 128.322 283.745 128.322 293.211V317.788C128.322 327.254 135.996 334.932 145.466 334.932H200.763ZM474.788 334.932C484.242 334.932 491.932 327.242 491.932 317.788V293.211C491.932 283.757 484.242 276.067 474.788 276.067H402.288C392.834 276.067 385.144 283.757 385.144 293.211V317.788C385.144 327.242 392.834 334.932 402.288 334.932H474.788Z" stroke="#FF4B61" stroke-width="22"/>
<path d="M412.178 214.838V214.841C412.178 216.019 412.177 216.872 412.151 217.631C412.142 217.868 412.132 218.074 412.121 218.253C412.029 218.26 411.931 218.267 411.824 218.274C411.214 218.311 410.577 218.314 409.661 218.314H214.009H213.751C212.938 218.314 212.314 218.312 211.778 218.301C211.763 217.697 211.762 216.996 211.763 216.069V216.066V107.661C211.763 102.896 215.658 99 220.424 99H403.517C408.282 99 412.178 102.896 412.178 107.661V214.838Z" stroke="#FF4B61" stroke-width="22"/>
<rect x="122" y="273" width="381" height="83" fill="white"/>
<rect x="14" y="440" width="27" height="83" fill="white"/>
<rect x="457" y="290" width="30" height="30" fill="#FF4B61"/>
</svg>
