<svg width="626" height="611" viewBox="0 0 626 611" fill="none" xmlns="http://www.w3.org/2000/svg">
<rect width="626" height="611" fill="white"/>
<rect x="14" y="440" width="27" height="83" fill="white"/>
<path d="M138.715 382.154C153.949 427.846 199.649 504 321.515 504C443.382 504 489.082 427.846 504.315 382.154M550 351.692C550 321.231 489.082 168.923 321.5 168.923M321.5 168.923C153.949 168.923 93 321.231 93 351.692M321.5 168.923V108M400.345 118.381L385.111 175.177M473.833 148.814L443.351 201.558M536.924 197.213L493.844 240.27M242.626 118.381L257.844 175.177M169.151 148.814L199.618 201.573M106.061 197.213L149.141 240.285M321.515 245.077C271.047 245.077 230.115 286.002 230.115 336.462C230.115 386.921 271.047 427.846 321.515 427.846C371.983 427.846 412.915 386.921 412.915 336.462M401.385 292.093C393.098 277.197 380.774 264.891 365.891 256.605M351.982 336.462C351.982 319.647 338.333 306 321.515 306C304.698 306 291.049 319.647 291.049 336.462C291.049 353.276 304.698 366.923 321.515 366.923C338.333 366.923 351.982 353.276 351.982 336.462Z" stroke="#FF4B61" stroke-width="27" stroke-linecap="round" stroke-linejoin="round"/>
</svg>
